<?xml version="1.0" encoding="UTF-8" standalone="no"?>
<!DOCTYPE svg PUBLIC "-//W3C//DTD SVG 1.1//EN"
 "http://www.w3.org/Graphics/SVG/1.1/DTD/svg11.dtd">
<!-- Generated by graphviz version 2.43.0 (0)
 -->
<!-- Pages: 1 -->
<svg width="1959pt" height="422pt"
 viewBox="0.00 0.00 1958.84 422.00" xmlns="http://www.w3.org/2000/svg" xmlns:xlink="http://www.w3.org/1999/xlink">
<g id="graph0" class="graph" transform="scale(1 1) rotate(0) translate(4 418)">
<polygon fill="white" stroke="transparent" points="-4,4 -4,-418 1954.84,-418 1954.84,4 -4,4"/>
<!-- root_scene_e5d60e63 -->
<g id="node1" class="node">
<title>root_scene_e5d60e63</title>
<ellipse fill="none" stroke="black" cx="110.49" cy="-315" rx="110.48" ry="18"/>
<text text-anchor="middle" x="110.49" y="-311.3" font-family="Times,serif" font-size="14.00">root_scene_e5d60e63</text>
</g>
<!-- abundant_fancy_meal_on_round_table_13ef0a5c -->
<g id="node2" class="node">
<title>abundant_fancy_meal_on_round_table_13ef0a5c</title>
<ellipse fill="none" stroke="black" cx="489.66" cy="-315" rx="232.86" ry="18"/>
<text text-anchor="middle" x="489.66" y="-311.3" font-family="Times,serif" font-size="14.00">abundant_fancy_meal_on_round_table_13ef0a5c</text>
</g>
<!-- root_scene_e5d60e63&#45;&gt;abundant_fancy_meal_on_round_table_13ef0a5c -->
<g id="edge1" class="edge">
<title>root_scene_e5d60e63&#45;&gt;abundant_fancy_meal_on_round_table_13ef0a5c</title>
<path fill="none" stroke="black" d="M221.09,-315C229.38,-315 237.91,-315 246.61,-315"/>
<polygon fill="black" stroke="black" points="246.89,-318.5 256.89,-315 246.89,-311.5 246.89,-318.5"/>
</g>
<!-- place_items_on_round_table_45bed033 -->
<g id="node3" class="node">
<title>place_items_on_round_table_45bed033</title>
<ellipse fill="none" stroke="black" cx="949.42" cy="-315" rx="191.17" ry="18"/>
<text text-anchor="middle" x="949.42" y="-311.3" font-family="Times,serif" font-size="14.00">place_items_on_round_table_45bed033</text>
</g>
<!-- abundant_fancy_meal_on_round_table_13ef0a5c&#45;&gt;place_items_on_round_table_45bed033 -->
<g id="edge2" class="edge">
<title>abundant_fancy_meal_on_round_table_13ef0a5c&#45;&gt;place_items_on_round_table_45bed033</title>
<path fill="none" stroke="black" d="M722.56,-315C731.06,-315 739.56,-315 748.01,-315"/>
<polygon fill="black" stroke="black" points="748.28,-318.5 758.28,-315 748.28,-311.5 748.28,-318.5"/>
</g>
<!-- table_a422f350 -->
<g id="node4" class="node">
<title>table_a422f350</title>
<ellipse fill="none" stroke="black" cx="1355.24" cy="-369" rx="82.59" ry="18"/>
<text text-anchor="middle" x="1355.24" y="-365.3" font-family="Times,serif" font-size="14.00">table_a422f350</text>
</g>
<!-- place_items_on_round_table_45bed033&#45;&gt;table_a422f350 -->
<g id="edge3" class="edge">
<title>place_items_on_round_table_45bed033&#45;&gt;table_a422f350</title>
<path fill="none" stroke="black" d="M1060.23,-329.68C1127.93,-338.74 1213.21,-350.14 1274.46,-358.33"/>
<polygon fill="black" stroke="black" points="1274.09,-361.81 1284.46,-359.67 1275.02,-354.87 1274.09,-361.81"/>
</g>
<!-- create_fancy_meal_group_821a3dd7 -->
<g id="node5" class="node">
<title>create_fancy_meal_group_821a3dd7</title>
<ellipse fill="none" stroke="black" cx="1355.24" cy="-315" rx="178.97" ry="18"/>
<text text-anchor="middle" x="1355.24" y="-311.3" font-family="Times,serif" font-size="14.00">create_fancy_meal_group_821a3dd7</text>
</g>
<!-- place_items_on_round_table_45bed033&#45;&gt;create_fancy_meal_group_821a3dd7 -->
<g id="edge4" class="edge">
<title>place_items_on_round_table_45bed033&#45;&gt;create_fancy_meal_group_821a3dd7</title>
<path fill="none" stroke="black" d="M1140.51,-315C1149.11,-315 1157.74,-315 1166.33,-315"/>
<polygon fill="black" stroke="black" points="1166.41,-318.5 1176.41,-315 1166.41,-311.5 1166.41,-318.5"/>
</g>
<!-- create_drinks_group_96c87bde -->
<g id="node6" class="node">
<title>create_drinks_group_96c87bde</title>
<ellipse fill="none" stroke="black" cx="1355.24" cy="-153" rx="155.17" ry="18"/>
<text text-anchor="middle" x="1355.24" y="-149.3" font-family="Times,serif" font-size="14.00">create_drinks_group_96c87bde</text>
</g>
<!-- place_items_on_round_table_45bed033&#45;&gt;create_drinks_group_96c87bde -->
<g id="edge5" class="edge">
<title>place_items_on_round_table_45bed033&#45;&gt;create_drinks_group_96c87bde</title>
<path fill="none" stroke="black" d="M994.41,-297.35C1069.25,-267.33 1221.05,-206.43 1301.48,-174.17"/>
<polygon fill="black" stroke="black" points="1302.94,-177.35 1310.92,-170.38 1300.34,-170.85 1302.94,-177.35"/>
</g>
<!-- benchmark_food_7d8a0c7f -->
<g id="node7" class="node">
<title>benchmark_food_7d8a0c7f</title>
<ellipse fill="none" stroke="black" cx="1760.41" cy="-396" rx="133.78" ry="18"/>
<text text-anchor="middle" x="1760.41" y="-392.3" font-family="Times,serif" font-size="14.00">benchmark_food_7d8a0c7f</text>
</g>
<!-- create_fancy_meal_group_821a3dd7&#45;&gt;benchmark_food_7d8a0c7f -->
<g id="edge6" class="edge">
<title>create_fancy_meal_group_821a3dd7&#45;&gt;benchmark_food_7d8a0c7f</title>
<path fill="none" stroke="black" d="M1486.91,-327.26C1503.1,-330.98 1519.15,-335.78 1533.97,-342 1552.42,-349.74 1551.49,-361.35 1569.97,-369 1588.64,-376.73 1609.12,-382.31 1629.5,-386.32"/>
<polygon fill="black" stroke="black" points="1629.03,-389.79 1639.5,-388.17 1630.3,-382.91 1629.03,-389.79"/>
</g>
<!-- benchmark_food_820bdb13 -->
<g id="node8" class="node">
<title>benchmark_food_820bdb13</title>
<ellipse fill="none" stroke="black" cx="1760.41" cy="-342" rx="137.58" ry="18"/>
<text text-anchor="middle" x="1760.41" y="-338.3" font-family="Times,serif" font-size="14.00">benchmark_food_820bdb13</text>
</g>
<!-- create_fancy_meal_group_821a3dd7&#45;&gt;benchmark_food_820bdb13 -->
<g id="edge7" class="edge">
<title>create_fancy_meal_group_821a3dd7&#45;&gt;benchmark_food_820bdb13</title>
<path fill="none" stroke="black" d="M1504.65,-324.94C1544.73,-327.62 1587.84,-330.51 1626.99,-333.13"/>
<polygon fill="black" stroke="black" points="1627.18,-336.65 1637.39,-333.83 1627.64,-329.67 1627.18,-336.65"/>
</g>
<!-- benchmark_food_45f210f4 -->
<g id="node9" class="node">
<title>benchmark_food_45f210f4</title>
<ellipse fill="none" stroke="black" cx="1760.41" cy="-288" rx="133.48" ry="18"/>
<text text-anchor="middle" x="1760.41" y="-284.3" font-family="Times,serif" font-size="14.00">benchmark_food_45f210f4</text>
</g>
<!-- create_fancy_meal_group_821a3dd7&#45;&gt;benchmark_food_45f210f4 -->
<g id="edge8" class="edge">
<title>create_fancy_meal_group_821a3dd7&#45;&gt;benchmark_food_45f210f4</title>
<path fill="none" stroke="black" d="M1504.65,-305.06C1545.94,-302.3 1590.44,-299.32 1630.51,-296.63"/>
<polygon fill="black" stroke="black" points="1630.86,-300.12 1640.6,-295.96 1630.39,-293.13 1630.86,-300.12"/>
</g>
<!-- benchmark_beverage_bottle_c99c12f3 -->
<g id="node10" class="node">
<title>benchmark_beverage_bottle_c99c12f3</title>
<ellipse fill="none" stroke="black" cx="1760.41" cy="-234" rx="188.47" ry="18"/>
<text text-anchor="middle" x="1760.41" y="-230.3" font-family="Times,serif" font-size="14.00">benchmark_beverage_bottle_c99c12f3</text>
</g>
<!-- create_drinks_group_96c87bde&#45;&gt;benchmark_beverage_bottle_c99c12f3 -->
<g id="edge9" class="edge">
<title>create_drinks_group_96c87bde&#45;&gt;benchmark_beverage_bottle_c99c12f3</title>
<path fill="none" stroke="black" d="M1415.28,-169.71C1457.99,-181.36 1517.21,-196.61 1569.97,-207 1590.96,-211.13 1613.37,-214.9 1635.17,-218.21"/>
<polygon fill="black" stroke="black" points="1634.72,-221.69 1645.13,-219.71 1635.76,-214.76 1634.72,-221.69"/>
</g>
<!-- genie_beverage_bottle_53339d7a -->
<g id="node11" class="node">
<title>genie_beverage_bottle_53339d7a</title>
<ellipse fill="none" stroke="black" cx="1760.41" cy="-180" rx="165.97" ry="18"/>
<text text-anchor="middle" x="1760.41" y="-176.3" font-family="Times,serif" font-size="14.00">genie_beverage_bottle_53339d7a</text>
</g>
<!-- create_drinks_group_96c87bde&#45;&gt;genie_beverage_bottle_53339d7a -->
<g id="edge10" class="edge">
<title>create_drinks_group_96c87bde&#45;&gt;genie_beverage_bottle_53339d7a</title>
<path fill="none" stroke="black" d="M1490.21,-161.97C1528.18,-164.51 1569.76,-167.3 1608.65,-169.9"/>
<polygon fill="black" stroke="black" points="1608.79,-173.42 1619,-170.6 1609.26,-166.44 1608.79,-173.42"/>
</g>
<!-- genie_beverage_bottle_8e057e61 -->
<g id="node12" class="node">
<title>genie_beverage_bottle_8e057e61</title>
<ellipse fill="none" stroke="black" cx="1760.41" cy="-126" rx="165.17" ry="18"/>
<text text-anchor="middle" x="1760.41" y="-122.3" font-family="Times,serif" font-size="14.00">genie_beverage_bottle_8e057e61</text>
</g>
<!-- create_drinks_group_96c87bde&#45;&gt;genie_beverage_bottle_8e057e61 -->
<g id="edge11" class="edge">
<title>create_drinks_group_96c87bde&#45;&gt;genie_beverage_bottle_8e057e61</title>
<path fill="none" stroke="black" d="M1490.21,-144.03C1528.28,-141.48 1569.99,-138.69 1608.97,-136.07"/>
<polygon fill="black" stroke="black" points="1609.61,-139.54 1619.35,-135.38 1609.14,-132.56 1609.61,-139.54"/>
</g>
<!-- genie_beverage_bottle_80b8c0d2 -->
<g id="node13" class="node">
<title>genie_beverage_bottle_80b8c0d2</title>
<ellipse fill="none" stroke="black" cx="1760.41" cy="-72" rx="165.17" ry="18"/>
<text text-anchor="middle" x="1760.41" y="-68.3" font-family="Times,serif" font-size="14.00">genie_beverage_bottle_80b8c0d2</text>
</g>
<!-- create_drinks_group_96c87bde&#45;&gt;genie_beverage_bottle_80b8c0d2 -->
<g id="edge12" class="edge">
<title>create_drinks_group_96c87bde&#45;&gt;genie_beverage_bottle_80b8c0d2</title>
<path fill="none" stroke="black" d="M1415.28,-136.29C1457.99,-124.64 1517.21,-109.39 1569.97,-99 1592.65,-94.53 1616.98,-90.5 1640.41,-87"/>
<polygon fill="black" stroke="black" points="1641,-90.45 1650.38,-85.53 1639.98,-83.52 1641,-90.45"/>
</g>
<!-- benchmark_desk_decoration_4bb83f0a -->
<g id="node14" class="node">
<title>benchmark_desk_decoration_4bb83f0a</title>
<ellipse fill="none" stroke="black" cx="1760.41" cy="-18" rx="190.37" ry="18"/>
<text text-anchor="middle" x="1760.41" y="-14.3" font-family="Times,serif" font-size="14.00">benchmark_desk_decoration_4bb83f0a</text>
</g>
<!-- create_drinks_group_96c87bde&#45;&gt;benchmark_desk_decoration_4bb83f0a -->
<g id="edge13" class="edge">
<title>create_drinks_group_96c87bde&#45;&gt;benchmark_desk_decoration_4bb83f0a</title>
<path fill="none" stroke="black" d="M1384.01,-135.22C1423.62,-110.74 1499.38,-67.2 1569.97,-45 1585.33,-40.17 1601.65,-36.2 1618.03,-32.94"/>
<polygon fill="black" stroke="black" points="1619.06,-36.31 1628.23,-31 1617.75,-29.43 1619.06,-36.31"/>
</g>
</g>
</svg>
